# xmcd
#
# Track frame offsets:
#	150
#	12236
#	23881
#	33034
#	44871
#	54833
#	65924
#	75251
#	85352
#	96202
#	108372
#	119075
#	127558
#	136975
#	146502
#	157565
#	167974
#	178798
#	188345
#	200284
#	210944
#	220403
#	229640
#	239931
#	249595
#	261075
#
# Disc length: 3625 seconds
#
# Revision: 0
# Processed by: cddbd v1.4PL0 Copyright (c) Steve Scherf et al.
# Submitted via: EasyCDDAExtractor 4.6.0.1
#
DISCID=610e271a
DTITLE=Various Artist - Explosive Doo-Wops  Vol 12
DYEAR=1900
DGENRE=Blues
TTITLE0=Upbeats (Ray Allen and the) - Sweet Lorraine
TTITLE1=Treble Chords - Teresa
TTITLE2=Tassels - The Boy For Me
TTITLE3=Elegants - Dressin' Up
TTITLE4=Eddie Cari and group - Wishing Time
TTITLE5=Nicki Como and group - Your Guardian Angel
TTITLE6=FourTemptations - Cathy
TTITLE7=Whirlwinds - Heartbeat
TTITLE8=Suburbans - I Remember
TTITLE9=Darrells - Without Warning
TTITLE10=Vines - Love So sweet
TTITLE11=Harmony Grits - Gee
TTITLE12=Raindrops (Tony and the) - While Walking
TTITLE13=Companions - These Foolish Things
TTITLE14=Corvets (Arthur and the) - I Believe
TTITLE15=Thrillers (Little Joe and the) - I Love You For Sentimental Reasons
TTITLE16=Counts (Bobby and the) - Tra-La-La
TTITLE17=Tassels - My Guy
TTITLE18=Orbits - Mr. Hard Luck
TTITLE19=King Bees - Lovely Love
TTITLE20=Del Rays - Lily Maybelle
TTITLE21=Cavaliers (Scott Stevens and the) - Why, Why, Why
TTITLE22=Castaleers - My Baby's All Right
TTITLE23=Charters - This Makes Me Mad
TTITLE24=Visions - Secret World(Of Tears)
TTITLE25=Aqua-Nites - Carioca
EXTD=
EXTT0=
EXTT1=
EXTT2=
EXTT3=
EXTT4=
EXTT5=
EXTT6=
EXTT7=
EXTT8=
EXTT9=
EXTT10=
EXTT11=
EXTT12=
EXTT13=
EXTT14=
EXTT15=
EXTT16=
EXTT17=
EXTT18=
EXTT19=
EXTT20=
EXTT21=
EXTT22=
EXTT23=
EXTT24=
EXTT25=
PLAYORDER=
